<svg width="2262" height="558" viewBox="0 0 2262 558" fill="none" xmlns="http://www.w3.org/2000/svg">
<path d="M491.803 52.6885H584.525C606.685 52.6885 626.221 56.9828 643.133 65.5713C660.239 73.9646 673.457 85.8715 682.788 101.292C692.312 116.712 697.075 134.67 697.075 155.165C697.075 175.661 692.312 193.618 682.788 209.039C673.457 224.459 660.239 236.463 643.133 245.052C626.221 253.445 606.685 257.642 584.525 257.642H491.803V52.6885ZM582.193 218.701C602.603 218.701 618.835 213.04 630.886 201.719C643.133 190.202 649.256 174.685 649.256 155.165C649.256 135.646 643.133 120.226 630.886 108.904C618.835 97.3879 602.603 91.6297 582.193 91.6297H539.039V218.701H582.193Z" fill="#FF9E16"/>
<path d="M878.584 219.579V257.642H720.549V52.6885H874.794V90.7513H767.493V135.255H862.256V172.147H767.493V219.579H878.584Z" fill="#FF9E16"/>
<path d="M1034.06 257.642L994.7 200.548H951.255V257.642H904.019V52.6885H992.368C1010.45 52.6885 1026.09 55.714 1039.31 61.765C1052.72 67.816 1063.03 76.4046 1070.22 87.5306C1077.41 98.6566 1081.01 111.832 1081.01 127.057C1081.01 142.282 1077.31 155.458 1069.93 166.584C1062.74 177.515 1052.43 185.908 1039.02 191.764L1084.8 257.642H1034.06ZM1033.19 127.057C1033.19 115.541 1029.5 106.757 1022.11 100.706C1014.72 94.46 1003.93 91.3369 989.744 91.3369H951.255V162.778H989.744C1003.93 162.778 1014.72 159.655 1022.11 153.408C1029.5 147.162 1033.19 138.379 1033.19 127.057Z" fill="#FF9E16"/>
<path d="M1106.28 52.6885H1153.52V257.642H1106.28V52.6885Z" fill="#FF9E16"/>
<path d="M1384.9 52.6885L1296.55 257.642H1249.9L1161.84 52.6885H1212.87L1274.98 199.084L1337.96 52.6885H1384.9Z" fill="#FF9E16"/>
<path d="M1517.38 213.723H1422.62L1404.54 257.642H1356.14L1447.11 52.6885H1493.76L1585.03 257.642H1535.46L1517.38 213.723ZM1502.51 177.71L1470.14 99.2422L1437.78 177.71H1502.51Z" fill="#FF9E16"/>
<path d="M1626.08 91.3369H1560.77V52.6885H1738.63V91.3369H1673.32V257.642H1626.08V91.3369Z" fill="#FF9E16"/>
<path d="M1751.9 52.6885H1799.13V257.642H1751.9V52.6885Z" fill="#FF9E16"/>
<path d="M2030.51 52.6885L1942.17 257.642H1895.51L1807.46 52.6885H1858.48L1920.59 199.084L1983.57 52.6885H2030.51Z" fill="#FF9E16"/>
<path d="M2193.44 219.579V257.642H2035.41V52.6885H2189.65V90.7513H2082.35V135.255H2177.11V172.147H2082.35V219.579H2193.44Z" fill="#FF9E16"/>
<path d="M795.021 505.148C774.221 505.148 755.366 500.658 738.454 491.679C721.737 482.505 708.519 469.915 698.8 453.909C689.275 437.708 684.512 419.457 684.512 399.157C684.512 378.857 689.275 360.704 698.8 344.698C708.519 328.497 721.737 315.907 738.454 306.928C755.366 297.754 774.319 293.167 795.312 293.167C813.002 293.167 828.941 296.29 843.131 302.536C857.516 308.783 869.568 317.762 879.287 329.473L848.963 357.581C835.162 341.575 818.056 333.572 797.645 333.572C785.01 333.572 773.736 336.403 763.822 342.063C753.908 347.529 746.133 355.239 740.495 365.194C735.053 375.149 732.331 386.47 732.331 399.157C732.331 411.845 735.053 423.166 740.495 433.121C746.133 443.076 753.908 450.884 763.822 456.544C773.736 462.01 785.01 464.742 797.645 464.742C818.056 464.742 835.162 456.642 848.963 440.441L879.287 468.549C869.568 480.456 857.516 489.532 843.131 495.778C828.747 502.024 812.71 505.148 795.021 505.148Z" fill="#FF9E16"/>
<path d="M957.963 341.77C982.261 341.77 1000.92 347.626 1013.95 359.338C1026.97 370.854 1033.48 388.324 1033.48 411.747V501.634H990.911V482.017C982.358 496.657 966.418 503.976 943.092 503.976C931.04 503.976 920.543 501.927 911.602 497.828C902.854 493.729 896.148 488.068 891.483 480.846C886.817 473.624 884.485 465.426 884.485 456.252C884.485 441.612 889.928 430.096 900.813 421.702C911.893 413.309 928.902 409.112 951.839 409.112H987.995C987.995 399.157 984.982 391.545 978.956 386.275C972.93 380.809 963.891 378.076 951.839 378.076C943.481 378.076 935.219 379.443 927.055 382.175C919.085 384.713 912.282 388.227 906.645 392.716L890.316 360.802C898.869 354.751 909.075 350.066 920.932 346.748C932.984 343.43 945.328 341.77 957.963 341.77ZM954.464 473.233C962.239 473.233 969.14 471.477 975.166 467.963C981.192 464.254 985.468 458.887 987.995 451.86V435.756H956.796C938.135 435.756 928.805 441.905 928.805 454.202C928.805 460.058 931.04 464.742 935.511 468.256C940.176 471.574 946.494 473.233 954.464 473.233Z" fill="#FF9E16"/>
<path d="M1062.5 284.383H1107.99V501.634H1062.5V284.383Z" fill="#FF9E16"/>
<path d="M1213.86 503.976C1197.15 503.976 1182.08 500.56 1168.67 493.729C1155.45 486.702 1145.05 477.04 1137.47 464.742C1130.08 452.445 1126.39 438.489 1126.39 422.873C1126.39 407.258 1130.08 393.302 1137.47 381.004C1145.05 368.707 1155.45 359.143 1168.67 352.311C1182.08 345.284 1197.15 341.77 1213.86 341.77C1230.39 341.77 1244.77 345.284 1257.02 352.311C1269.46 359.143 1278.5 369 1284.13 381.883L1248.85 400.914C1240.69 386.47 1228.93 379.248 1213.57 379.248C1201.71 379.248 1191.9 383.151 1184.12 390.959C1176.35 398.767 1172.46 409.405 1172.46 422.873C1172.46 436.342 1176.35 446.98 1184.12 454.788C1191.9 462.595 1201.71 466.499 1213.57 466.499C1229.12 466.499 1240.88 459.277 1248.85 444.833L1284.13 464.157C1278.5 476.649 1269.46 486.409 1257.02 493.436C1244.77 500.463 1230.39 503.976 1213.86 503.976Z" fill="#FF9E16"/>
<path d="M1456.21 344.113V501.634H1413.06V482.895C1407.03 489.727 1399.84 494.997 1391.48 498.706C1383.12 502.22 1374.08 503.976 1364.36 503.976C1343.76 503.976 1327.43 498.023 1315.38 486.116C1303.33 474.209 1297.3 456.544 1297.3 433.121V344.113H1342.79V426.387C1342.79 451.762 1353.38 464.45 1374.57 464.45C1385.45 464.45 1394.2 460.936 1400.81 453.909C1407.42 446.687 1410.72 436.049 1410.72 421.995V344.113H1456.21Z" fill="#FF9E16"/>
<path d="M1486.2 284.383H1531.69V501.634H1486.2V284.383Z" fill="#FF9E16"/>
<path d="M1625.03 341.77C1649.32 341.77 1667.99 347.626 1681.01 359.338C1694.03 370.854 1700.54 388.324 1700.54 411.747V501.634H1657.97V482.017C1649.42 496.657 1633.48 503.976 1610.16 503.976C1598.1 503.976 1587.61 501.927 1578.66 497.828C1569.92 493.729 1563.21 488.068 1558.55 480.846C1553.88 473.624 1551.55 465.426 1551.55 456.252C1551.55 441.612 1556.99 430.096 1567.88 421.702C1578.96 413.309 1595.96 409.112 1618.9 409.112H1655.06C1655.06 399.157 1652.05 391.545 1646.02 386.275C1639.99 380.809 1630.95 378.076 1618.9 378.076C1610.54 378.076 1602.28 379.443 1594.12 382.175C1586.15 384.713 1579.34 388.227 1573.71 392.716L1557.38 360.802C1565.93 354.751 1576.14 350.066 1588 346.748C1600.05 343.43 1612.39 341.77 1625.03 341.77ZM1621.53 473.233C1629.3 473.233 1636.2 471.477 1642.23 467.963C1648.25 464.254 1652.53 458.887 1655.06 451.86V435.756H1623.86C1605.2 435.756 1595.87 441.905 1595.87 454.202C1595.87 460.058 1598.1 464.742 1602.57 468.256C1607.24 471.574 1613.56 473.233 1621.53 473.233Z" fill="#FF9E16"/>
<path d="M1830.74 494.021C1826.27 497.34 1820.73 499.877 1814.12 501.634C1807.71 503.196 1800.9 503.976 1793.71 503.976C1775.05 503.976 1760.57 499.194 1750.26 489.63C1740.16 480.065 1735.1 466.011 1735.1 447.468V382.761H1710.9V347.626H1735.1V309.271H1780.59V347.626H1819.66V382.761H1780.59V446.882C1780.59 453.519 1782.24 458.691 1785.55 462.4C1789.04 465.914 1793.9 467.67 1800.12 467.67C1807.32 467.67 1813.44 465.718 1818.49 461.814L1830.74 494.021Z" fill="#FF9E16"/>
<path d="M1913.93 503.976C1897.41 503.976 1882.54 500.56 1869.32 493.729C1856.29 486.702 1846.09 477.04 1838.7 464.742C1831.31 452.445 1827.62 438.489 1827.62 422.873C1827.62 407.258 1831.31 393.302 1838.7 381.004C1846.09 368.707 1856.29 359.143 1869.32 352.311C1882.54 345.284 1897.41 341.77 1913.93 341.77C1930.45 341.77 1945.23 345.284 1958.25 352.311C1971.27 359.143 1981.48 368.707 1988.86 381.004C1996.25 393.302 1999.94 407.258 1999.94 422.873C1999.94 438.489 1996.25 452.445 1988.86 464.742C1981.48 477.04 1971.27 486.702 1958.25 493.729C1945.23 500.56 1930.45 503.976 1913.93 503.976ZM1913.93 466.499C1925.59 466.499 1935.12 462.595 1942.5 454.788C1950.08 446.785 1953.88 436.147 1953.88 422.873C1953.88 409.6 1950.08 399.06 1942.5 391.252C1935.12 383.249 1925.59 379.248 1913.93 379.248C1902.27 379.248 1892.64 383.249 1885.06 391.252C1877.48 399.06 1873.69 409.6 1873.69 422.873C1873.69 436.147 1877.48 446.785 1885.06 454.788C1892.64 462.595 1902.27 466.499 1913.93 466.499Z" fill="#FF9E16"/>
<path d="M2061.64 364.901C2067.09 357.288 2074.38 351.53 2083.51 347.626C2092.84 343.722 2103.53 341.77 2115.59 341.77V383.932C2110.53 383.542 2107.13 383.347 2105.38 383.347C2092.36 383.347 2082.15 387.055 2074.77 394.473C2067.38 401.695 2063.69 412.626 2063.69 427.265V501.634H2018.2V344.113H2061.64V364.901Z" fill="#FF9E16"/>
<path d="M129.624 107.931C139.147 105.077 149.14 104.366 158.905 102.689C231.742 91.3852 304.589 80.0221 377.406 68.5867C385.658 67.2224 394.756 68.1941 401.417 73.6915C408.218 78.7237 411.144 87.0982 412.325 95.1665C428.85 202.59 445.846 309.94 462.465 417.35C465.649 432.567 454.091 447.964 438.769 449.737C359.027 462.387 279.175 474.458 199.453 487.24C189.618 489.083 178.326 488.26 170.797 480.912C162.027 472.774 161.804 459.968 159.898 448.985C144.977 352.341 129.827 255.712 114.718 159.097C113.376 149.26 110.663 139.406 111.594 129.427C112.774 119.564 120.119 110.783 129.624 107.931ZM155.946 128.718C147.703 130.756 140.215 137.265 139.253 146.053C137.648 160.61 142.304 174.885 143.925 189.228C146.162 201.47 146.162 215.064 153.767 225.504C159.527 233.379 170.258 233.325 178.962 232.14C244.27 221.761 309.61 211.472 374.994 201.582C384.128 200.06 395.22 196.884 398.364 187.003C401.489 175.391 397.708 163.389 396.1 151.84C393.28 137.722 393.092 123.04 388.373 109.353C385.899 101.525 378.127 96.4517 370.091 96.1049C357.911 95.4018 345.972 98.5945 333.999 100.327C286.954 107.762 239.881 115.008 192.831 122.405C180.541 124.457 167.984 125.297 155.946 128.718ZM171.938 255.468C162.399 258.961 157.705 269.662 159.077 279.32C160.434 290.619 160.836 303.456 168.648 312.495C176.247 320.546 188.324 318.488 198.114 317.096C208.311 315.467 221.217 313.531 225.655 302.677C229.455 291.808 226.135 280.043 224.125 269.135C222.662 259.876 215.509 251.351 205.798 250.533C194.393 249.728 182.705 251.686 171.938 255.468ZM264.196 241.096C255.373 244.362 250.352 253.957 251.278 263.106C252.345 274.644 252.945 287.391 260.014 297.106C267.33 306.184 280.217 304.251 290.369 302.706C300.155 301.044 312.346 299.47 317.314 289.537C321.995 279.127 318.67 267.325 316.883 256.613C315.524 247.281 309.399 237.805 299.457 236.367C287.616 234.994 275.396 237.247 264.196 241.096ZM358.249 226.252C350.27 229.116 344.444 237.005 344.605 245.579C344.809 255.786 346.337 266.075 349.42 275.833C352.536 285.547 363.212 290.823 372.993 289.374C384.541 287.881 397.596 287.638 407.06 279.953C415.469 272.182 412.824 259.676 411.456 249.67C409.925 239.362 407.534 226.257 396.092 222.624C383.613 219.384 370.302 222.675 358.249 226.252ZM190.099 335.179C182.05 338.71 175.705 345.87 173.183 354.304C169.776 365.71 173.745 378.916 183.053 386.43C194.67 396.129 212.416 394.691 224.686 387.07C238.939 377.828 241.919 356.385 231.262 343.316C221.892 330.837 203.619 329.021 190.099 335.179ZM282.337 320.811C274.723 324.158 268.631 330.719 265.865 338.574C261.769 350.261 265.642 364.215 275.305 372.02C286.905 381.741 304.63 380.288 316.924 372.701C331.234 363.451 334.205 341.951 323.507 328.869C314.087 316.437 295.854 314.634 282.337 320.811ZM368.975 307.374C359.581 311.056 355.106 321.8 357.058 331.348C361.03 358.417 365.792 385.363 369.538 412.467C370.969 420.65 371.742 430.306 378.813 435.835C386.51 442.039 397.048 440.376 406.086 439.101C415.223 437.483 426.047 436.412 432.019 428.346C437.757 420.876 436.05 410.923 434.749 402.333C430.234 375.986 426.547 349.509 422.258 323.126C421.114 313.567 414.971 303.727 404.763 302.312C392.711 301.068 380.285 303.238 368.975 307.374ZM194.618 412.237C185.528 415.892 181.632 426.391 182.949 435.575C184.219 445.944 184.87 458.394 193.906 465.276C201.898 471.395 212.535 469.003 221.672 467.751C231.119 466.258 242.439 464.666 247.662 455.503C252.951 445.654 249.64 433.946 247.555 423.666C245.612 413.557 235.893 405.394 225.425 406.641C215.056 407.661 204.465 408.734 194.618 412.237ZM294.248 396.426C286.505 399.446 280.434 406.139 277.675 413.916C271.752 429.59 281.614 448.934 298.001 452.876C312.445 456.099 330.257 451.623 337.844 437.965C345.737 424.779 341.197 405.936 328.167 397.807C318.143 391.021 305.089 392.749 294.248 396.426Z" fill="#3E3E3E"/>
<path d="M155.946 128.718C167.984 125.297 180.54 124.457 192.831 122.405C239.881 115.008 286.954 107.762 333.998 100.327C345.972 98.5945 357.911 95.4018 370.09 96.1049C378.127 96.4517 385.898 101.525 388.373 109.353C393.091 123.04 393.28 137.722 396.099 151.84C397.708 163.389 401.489 175.391 398.364 187.003C395.22 196.884 384.127 200.06 374.994 201.582C309.61 211.472 244.269 221.761 178.962 232.14C170.258 233.324 159.527 233.379 153.767 225.504C146.161 215.064 146.162 201.47 143.925 189.228C142.304 174.885 137.648 160.61 139.253 146.053C140.215 137.265 147.703 130.756 155.946 128.718Z" fill="#242424"/>
<path d="M171.938 255.463C182.705 251.682 194.392 249.724 205.798 250.528C215.508 251.347 222.661 259.872 224.125 269.13C226.135 280.039 229.454 291.803 225.655 302.673C221.216 313.527 208.31 315.463 198.114 317.092C188.324 318.484 176.247 320.541 168.647 312.491C160.836 303.451 160.434 290.615 159.076 279.315C157.705 269.657 162.398 258.956 171.938 255.463Z" fill="#FF9E16"/>
<path d="M264.196 241.096C275.396 237.247 287.616 234.994 299.457 236.367C309.399 237.805 315.524 247.281 316.883 256.613C318.67 267.325 321.995 279.127 317.314 289.537C312.346 299.47 300.155 301.044 290.369 302.706C280.217 304.251 267.33 306.184 260.014 297.106C252.945 287.391 252.345 274.643 251.278 263.106C250.352 253.957 255.373 244.362 264.196 241.096Z" fill="#FF9E16"/>
<path d="M358.249 226.251C370.302 222.675 383.613 219.384 396.092 222.624C407.534 226.257 409.925 239.362 411.456 249.67C412.824 259.676 415.469 272.182 407.06 279.953C397.596 287.638 384.541 287.881 372.993 289.374C363.212 290.823 352.536 285.547 349.421 275.833C346.337 266.075 344.809 255.786 344.605 245.579C344.444 237.005 350.27 229.116 358.249 226.251Z" fill="#FF9E16"/>
<path d="M368.975 307.374C380.285 303.238 392.711 301.068 404.763 302.312C414.971 303.727 421.115 313.567 422.258 323.126C426.547 349.509 430.234 375.986 434.749 402.333C436.05 410.923 437.757 420.876 432.019 428.346C426.047 436.412 415.223 437.483 406.086 439.101C397.049 440.376 386.51 442.039 378.813 435.835C371.742 430.305 370.969 420.65 369.538 412.467C365.792 385.363 361.03 358.417 357.058 331.348C355.106 321.8 359.581 311.056 368.975 307.374Z" fill="#FF9E16"/>
<path d="M190.092 335.18C203.612 329.022 221.885 330.838 231.255 343.317C241.912 356.386 238.933 377.829 224.679 387.071C212.409 394.692 194.663 396.13 183.047 386.431C173.738 378.917 169.769 365.711 173.177 354.305C175.698 345.871 182.043 338.711 190.092 335.18Z" fill="#E4E2D9"/>
<path d="M282.337 320.811C295.854 314.634 314.087 316.437 323.507 328.869C334.205 341.951 331.234 363.451 316.924 372.701C304.63 380.288 286.905 381.741 275.305 372.02C265.642 364.215 261.769 350.261 265.865 338.574C268.631 330.719 274.723 324.158 282.337 320.811Z" fill="#E4E2D9"/>
<path d="M194.618 412.237C204.465 408.734 215.056 407.661 225.425 406.641C235.893 405.394 245.612 413.557 247.555 423.666C249.64 433.946 252.951 445.654 247.662 455.502C242.439 464.666 231.119 466.258 221.672 467.751C212.535 469.003 201.898 471.395 193.906 465.276C184.869 458.394 184.219 445.944 182.949 435.575C181.632 426.391 185.528 415.891 194.618 412.237Z" fill="#E4E2D9"/>
<path d="M294.248 396.426C305.089 392.749 318.143 391.021 328.168 397.807C341.197 405.936 345.737 424.779 337.844 437.965C330.257 451.623 312.445 456.099 298.001 452.876C281.614 448.934 271.752 429.59 277.675 413.916C280.434 406.139 286.505 399.446 294.248 396.426Z" fill="#E4E2D9"/>
</svg>
